<svg xmlns="http://www.w3.org/2000/svg" xmlns:xlink="http://www.w3.org/1999/xlink" width="84" height="85" viewBox="0 0 84 85">
  <defs>
    <filter id="Rectangle_45" x="0" y="0" width="84" height="85" filterUnits="userSpaceOnUse">
      <feOffset dy="3" input="SourceAlpha"/>
      <feGaussianBlur stdDeviation="3" result="blur"/>
      <feFlood flood-opacity="0.161"/>
      <feComposite operator="in" in2="blur"/>
      <feComposite in="SourceGraphic"/>
    </filter>
    <filter id="Rectangle_46" x="0" y="0" width="84" height="52" filterUnits="userSpaceOnUse">
      <feOffset dy="3" input="SourceAlpha"/>
      <feGaussianBlur stdDeviation="3" result="blur-2"/>
      <feFlood flood-opacity="0.161"/>
      <feComposite operator="in" in2="blur-2"/>
      <feComposite in="SourceGraphic"/>
    </filter>
    <filter id="JI">
      <feOffset dy="3" input="SourceAlpha"/>
      <feGaussianBlur stdDeviation="3" result="blur-3"/>
      <feFlood flood-opacity="0.161" result="color"/>
      <feComposite operator="out" in="SourceGraphic" in2="blur-3"/>
      <feComposite operator="in" in="color"/>
      <feComposite operator="in" in2="SourceGraphic"/>
    </filter>
    <filter id="Rectangle_47" x="14" y="50" width="46" height="24" filterUnits="userSpaceOnUse">
      <feOffset dy="3" input="SourceAlpha"/>
      <feGaussianBlur stdDeviation="3" result="blur-4"/>
      <feFlood flood-opacity="0.161"/>
      <feComposite operator="in" in2="blur-4"/>
      <feComposite in="SourceGraphic"/>
    </filter>
    <filter id="Rectangle_48" x="13" y="42" width="58" height="24" filterUnits="userSpaceOnUse">
      <feOffset dy="3" input="SourceAlpha"/>
      <feGaussianBlur stdDeviation="3" result="blur-5"/>
      <feFlood flood-opacity="0.161"/>
      <feComposite operator="in" in2="blur-5"/>
      <feComposite in="SourceGraphic"/>
    </filter>
  </defs>
  <g id="Group_64" data-name="Group 64" transform="translate(-998 -421)">
    <g id="Group_63" data-name="Group 63" transform="translate(574 -80)">
      <g transform="matrix(1, 0, 0, 1, 424, 501)" filter="url(#Rectangle_45)">
        <g id="Rectangle_45-2" data-name="Rectangle 45" transform="translate(9 6)" fill="#b5c8db" stroke="#6ba7e2" stroke-width="1">
          <rect width="66" height="67" rx="15" stroke="none"/>
          <rect x="0.5" y="0.5" width="65" height="66" rx="14.5" fill="none"/>
        </g>
      </g>
      <g transform="matrix(1, 0, 0, 1, 424, 501)" filter="url(#Rectangle_46)">
        <g id="Rectangle_46-2" data-name="Rectangle 46" transform="translate(9 6)" fill="#f5faff" stroke="#6ba7e2" stroke-width="1">
          <path d="M15,0H51A15,15,0,0,1,66,15V34a0,0,0,0,1,0,0H0a0,0,0,0,1,0,0V15A15,15,0,0,1,15,0Z" stroke="none"/>
          <path d="M15,.5H51A14.5,14.5,0,0,1,65.5,15V33.5a0,0,0,0,1,0,0H.5a0,0,0,0,1,0,0V15A14.5,14.5,0,0,1,15,.5Z" fill="none"/>
        </g>
      </g>
      <g data-type="innerShadowGroup">
        <text id="JI-2" data-name="JI" transform="translate(455 534)" fill="#6486a7" font-size="25" font-family="HelveticaNeue-Bold, Helvetica Neue" font-weight="700"><tspan x="0" y="0">JI</tspan></text>
        <g transform="matrix(1, 0, 0, 1, 424, 501)" filter="url(#JI)">
          <text id="JI-3" data-name="JI" transform="translate(31 33)" fill="#fff" font-size="25" font-family="HelveticaNeue-Bold, Helvetica Neue" font-weight="700"><tspan x="0" y="0">JI</tspan></text>
        </g>
      </g>
    </g>
    <g transform="matrix(1, 0, 0, 1, 998, 421)" filter="url(#Rectangle_47)">
      <g id="Rectangle_47-2" data-name="Rectangle 47" transform="translate(23 56)" fill="#b5c8db" stroke="#8bb4dd" stroke-width="0.5">
        <rect width="28" height="6" rx="3" stroke="none"/>
        <rect x="0.25" y="0.25" width="27.5" height="5.5" rx="2.75" fill="none"/>
      </g>
    </g>
    <g transform="matrix(1, 0, 0, 1, 998, 421)" filter="url(#Rectangle_48)">
      <g id="Rectangle_48-2" data-name="Rectangle 48" transform="translate(22 48)" fill="#b5c8db" stroke="#8bb4dd" stroke-width="0.5">
        <rect width="40" height="6" rx="3" stroke="none"/>
        <rect x="0.25" y="0.25" width="39.5" height="5.5" rx="2.75" fill="none"/>
      </g>
    </g>
  </g>
</svg>
